# xmcd CD database file
#
# Track frame offsets:
#	150
#	18844
#	36679
#	55979
#	74138
#	95112
#	113691
#	133883
#	151447
#	170616
#	188065
#	205902
#	223151
#	242771
#
# Disc length: 3474 seconds
#
# Revision: 0
# Processed by: cddbd v1.5.2PL0 Copyright (c) Steve Scherf et al.
# Submitted via: jetAudio 7
#
DISCID=db0d900e
DTITLE=譚炎健  - 發燒神笛
DYEAR=1900
DGENRE=장르 없음
TTITLE0=在那東山上
TTITLE1=牧羊姑娘
TTITLE2=美麗草原我的家
TTITLE3=青藏高原
TTITLE4=天堂
TTITLE5=映山紅
TTITLE6=草原之夜
TTITLE7=森吉德瑪
TTITLE8=閃亮的日子
TTITLE9=月亮代表我的心
TTITLE10=敖包相會
TTITLE11=遠飛的大雁
TTITLE12=荷花頌
TTITLE13=我愛祖國的大草原
EXTD=
EXTT0=
EXTT1=
EXTT2=
EXTT3=
EXTT4=
EXTT5=
EXTT6=
EXTT7=
EXTT8=
EXTT9=
EXTT10=
EXTT11=
EXTT12=
EXTT13=
PLAYORDER=
